<svg width="49" height="38" viewBox="0 0 49 38" fill="none" xmlns="http://www.w3.org/2000/svg">
<g clip-path="url(#clip0_74_605)">
<path d="M8.90796 37.8115V35.2964C8.90796 34.3321 8.31957 33.7035 7.31105 33.7035C6.80689 33.7035 6.26062 33.8711 5.8824 34.4161C5.5884 33.9549 5.16826 33.7035 4.53796 33.7035C4.11763 33.7035 3.69769 33.8291 3.36139 34.2903V33.7873H2.479V37.8115H3.36139V35.5897C3.36139 34.8773 3.73961 34.5417 4.32799 34.5417C4.91599 34.5417 5.21037 34.9191 5.21037 35.5897V37.8115H6.09275V35.5897C6.09275 34.8773 6.5127 34.5417 7.05897 34.5417C7.64736 34.5417 7.94136 34.9191 7.94136 35.5897V37.8115H8.90796ZM21.9755 33.7873H20.547V32.5717H19.6646V33.7873H18.8662V34.5836H19.6644V36.4282C19.6644 37.3505 20.0426 37.8953 21.0512 37.8953C21.4294 37.8953 21.8493 37.7696 22.1437 37.602L21.8914 36.8473C21.6393 37.015 21.3453 37.057 21.1352 37.057C20.715 37.057 20.547 36.8055 20.547 36.3862V34.5836H21.9755V33.7873ZM29.4548 33.7033C28.9507 33.7033 28.6146 33.9549 28.4044 34.2903V33.7873H27.522V37.8115H28.4044V35.5479C28.4044 34.8772 28.6984 34.4999 29.2447 34.4999C29.4127 34.4999 29.6229 34.5419 29.791 34.5838L30.043 33.7455C29.875 33.7035 29.6229 33.7035 29.4548 33.7035V33.7033ZM18.1519 34.1226C17.7316 33.8291 17.1434 33.7035 16.5131 33.7035C15.5048 33.7035 14.8326 34.2064 14.8326 35.0029C14.8326 35.6737 15.3367 36.0509 16.2191 36.1767L16.6392 36.2187C17.1015 36.3023 17.3536 36.4282 17.3536 36.6379C17.3536 36.9312 17.0175 37.1408 16.4291 37.1408C15.8409 37.1408 15.3786 36.9312 15.0844 36.7217L14.6643 37.3923C15.1266 37.7276 15.7569 37.8953 16.387 37.8953C17.5635 37.8953 18.2359 37.3505 18.2359 36.5958C18.2359 35.8832 17.6897 35.5059 16.8492 35.3802L16.4291 35.3382C16.0509 35.2962 15.7569 35.2126 15.7569 34.9611C15.7569 34.6676 16.0509 34.4999 16.5131 34.4999C17.0175 34.4999 17.5216 34.7094 17.7737 34.8352L18.1519 34.1226ZM41.5982 33.7035C41.0939 33.7035 40.7578 33.9549 40.5476 34.2903V33.7873H39.6652V37.8115H40.5476V35.5479C40.5476 34.8772 40.8418 34.4999 41.3879 34.4999C41.5561 34.4999 41.7663 34.5419 41.9343 34.5838L42.1864 33.7455C42.0184 33.7035 41.7663 33.7035 41.5982 33.7035ZM30.3372 35.7994C30.3372 37.015 31.1775 37.8953 32.4802 37.8953C33.0684 37.8953 33.4885 37.7696 33.9087 37.4343L33.4885 36.7217C33.1524 36.9732 32.8163 37.0988 32.4381 37.0988C31.7238 37.0988 31.2196 36.5958 31.2196 35.7994C31.2196 35.0449 31.7238 34.5417 32.4381 34.4999C32.8163 34.4999 33.1524 34.6256 33.4885 34.8773L33.9087 34.1646C33.4885 33.8291 33.0684 33.7035 32.4802 33.7035C31.1775 33.7035 30.3372 34.5838 30.3372 35.7994ZM38.4888 35.7994V33.7873H37.6065V34.2903C37.3123 33.9131 36.8921 33.7035 36.3459 33.7035C35.2114 33.7035 34.329 34.5838 34.329 35.7994C34.329 37.015 35.2114 37.8953 36.3459 37.8953C36.934 37.8953 37.3544 37.6858 37.6065 37.3085V37.8115H38.4888V35.7994ZM35.2533 35.7994C35.2533 35.0867 35.7155 34.4999 36.4718 34.4999C37.1861 34.4999 37.6905 35.0449 37.6905 35.7994C37.6905 36.512 37.1861 37.0988 36.4718 37.0988C35.7155 37.0568 35.2533 36.512 35.2533 35.7994ZM24.7068 33.7035C23.5302 33.7035 22.6898 34.5417 22.6898 35.7994C22.6898 37.057 23.5301 37.8953 24.7487 37.8953C25.3369 37.8953 25.9253 37.7276 26.3876 37.3505L25.9672 36.7217C25.6311 36.9732 25.211 37.1408 24.7908 37.1408C24.2446 37.1408 23.6983 36.8893 23.5722 36.1765H26.5556V35.8414C26.5977 34.5417 25.8415 33.7035 24.7068 33.7035ZM24.7068 34.4579C25.2529 34.4579 25.6313 34.7934 25.7151 35.4222H23.6143C23.6983 34.8772 24.0765 34.4579 24.7068 34.4579ZM46.5983 35.7994V32.1943H45.716V34.2903C45.4218 33.9131 45.0016 33.7035 44.4553 33.7035C43.3209 33.7035 42.4385 34.5838 42.4385 35.7994C42.4385 37.015 43.3209 37.8953 44.4553 37.8953C45.0437 37.8953 45.4639 37.6858 45.716 37.3085V37.8115H46.5983V35.7994ZM43.363 35.7994C43.363 35.0867 43.825 34.4999 44.5815 34.4999C45.2958 34.4999 45.8 35.0449 45.8 35.7994C45.8 36.512 45.2958 37.0988 44.5815 37.0988C43.825 37.0568 43.363 36.512 43.363 35.7994ZM13.866 35.7994V33.7873H12.9836V34.2903C12.6894 33.9131 12.2692 33.7035 11.723 33.7035C10.5885 33.7035 9.70612 34.5838 9.70612 35.7994C9.70612 37.015 10.5885 37.8953 11.723 37.8953C12.3114 37.8953 12.7315 37.6858 12.9836 37.3085V37.8115H13.866V35.7994ZM10.5885 35.7994C10.5885 35.0867 11.0507 34.4999 11.807 34.4999C12.5213 34.4999 13.0257 35.0449 13.0257 35.7994C13.0257 36.512 12.5213 37.0988 11.807 37.0988C11.0507 37.0568 10.5885 36.512 10.5885 35.7994Z" fill="black"/>
<path d="M17.8579 3.22754H31.0937V26.9539H17.8579V3.22754Z" fill="#FF5F00"/>
<path d="M18.6983 15.091C18.6983 10.2703 20.9672 5.99445 24.4546 3.22771C21.8917 1.21562 18.6564 0 15.1268 0C6.76487 0 0 6.74891 0 15.091C0 23.4328 6.76487 30.1819 15.1266 30.1819C18.6562 30.1819 21.8915 28.9663 24.4546 26.954C20.9672 24.2293 18.6983 19.9116 18.6983 15.091Z" fill="#EB001B"/>
<path d="M48.9515 15.091C48.9515 23.4328 42.1866 30.1819 33.8248 30.1819C30.2953 30.1819 27.0599 28.9663 24.4968 26.954C28.0264 24.1875 30.2534 19.9116 30.2534 15.091C30.2534 10.2703 27.9842 5.99445 24.4968 3.22771C27.0598 1.21562 30.2953 0 33.8248 0C42.1866 0 48.9515 6.79092 48.9515 15.091Z" fill="#F79E1B"/>
</g>
<defs>
<clipPath id="clip0_74_605">
<rect width="49" height="38" fill="white"/>
</clipPath>
</defs>
</svg>
